<svg width="24" height="24" viewBox="0 0 24 24" fill="none" xmlns="http://www.w3.org/2000/svg">
<path d="M5.52377 7C9.41427 5.74386 13.9724 5.45573 16 5.5C18.0276 5.54427 18.8831 6.2663 19.5 7.5C20.5 9.5 20.289 14.4881 18.5 16.0871C16.712 17.6861 9.33015 17.8381 6.87015 16.0871C4.27115 14.2361 5.629 9.192 5.544 5.743C5.595 3.813 3.5 3.5 3.5 3.5" stroke="white" stroke-width="1.5" stroke-linecap="round" stroke-linejoin="round"/>
<path d="M13 10.5H15.773" stroke="white" stroke-width="1.5" stroke-linecap="round" stroke-linejoin="round"/>
<path fill-rule="evenodd" clip-rule="evenodd" d="M7.26375 20.127C7.56375 20.127 7.80775 20.371 7.80775 20.671C7.80775 20.972 7.56375 21.216 7.26375 21.216C6.96275 21.216 6.71875 20.972 6.71875 20.671C6.71875 20.371 6.96275 20.127 7.26375 20.127Z" fill="white" stroke="white" stroke-width="1.5" stroke-linecap="round" stroke-linejoin="round"/>
<path fill-rule="evenodd" clip-rule="evenodd" d="M17.5953 20.127C17.8963 20.127 18.1403 20.371 18.1403 20.671C18.1403 20.972 17.8963 21.216 17.5953 21.216C17.2953 21.216 17.0513 20.972 17.0513 20.671C17.0513 20.371 17.2953 20.127 17.5953 20.127Z" fill="white" stroke="white" stroke-width="1.5" stroke-linecap="round" stroke-linejoin="round"/>
</svg>
