<svg width="28" height="28" viewBox="0 0 28 28" fill="none" xmlns="http://www.w3.org/2000/svg">
<g clip-path="url(#clip0_203_1665)">
<path d="M25.6667 15.7503V24.5003C25.6667 24.8097 25.5438 25.1065 25.325 25.3253C25.1062 25.5441 24.8094 25.667 24.5 25.667H23.3333C23.0239 25.667 22.7272 25.5441 22.5084 25.3253C22.2896 25.1065 22.1667 24.8097 22.1667 24.5003V23.3337H5.83333V24.5003C5.83333 24.8097 5.71042 25.1065 5.49162 25.3253C5.27283 25.5441 4.97609 25.667 4.66667 25.667H3.5C3.19058 25.667 2.89383 25.5441 2.67504 25.3253C2.45625 25.1065 2.33333 24.8097 2.33333 24.5003V15.7503L0.883167 15.3887C0.630879 15.3255 0.406943 15.1798 0.246931 14.9747C0.0869192 14.7697 6.83717e-06 14.5171 0 14.257L0 13.417C0 13.2623 0.0614582 13.1139 0.170854 13.0045C0.280251 12.8951 0.428624 12.8337 0.583333 12.8337H2.77083L5.26517 6.18133C5.43192 5.73647 5.7305 5.35311 6.12098 5.0825C6.51146 4.8119 6.97525 4.66693 7.45033 4.66699H20.5497C21.0248 4.66693 21.4885 4.8119 21.879 5.0825C22.2695 5.35311 22.5681 5.73647 22.7348 6.18133L25.2292 12.8337H27.4167C27.5714 12.8337 27.7197 12.8951 27.8291 13.0045C27.9385 13.1139 28 13.2623 28 13.417V14.257C28 14.5171 27.9131 14.7697 27.7531 14.9747C27.5931 15.1798 27.3691 15.3255 27.1168 15.3887L25.6667 15.7503ZM4.66667 17.5003V19.8337C4.66667 20.1431 4.78958 20.4398 5.00838 20.6586C5.22717 20.8774 5.52391 21.0003 5.83333 21.0003H9.61917C9.7199 21.0002 9.81887 20.9739 9.90645 20.9241C9.99403 20.8744 10.0672 20.8028 10.1189 20.7163C10.1706 20.6299 10.199 20.5315 10.2014 20.4308C10.2038 20.3301 10.18 20.2305 10.1325 20.1417C9.19333 18.38 7.371 17.5003 4.66667 17.5003ZM23.3333 17.5003C20.6302 17.5003 18.8078 18.3812 17.8663 20.1417C17.8187 20.2306 17.795 20.3303 17.7974 20.4311C17.7999 20.5319 17.8284 20.6303 17.8802 20.7168C17.932 20.8033 18.0054 20.8749 18.0931 20.9246C18.1809 20.9743 18.28 21.0004 18.3808 21.0003H22.1667C22.4761 21.0003 22.7728 20.8774 22.9916 20.6586C23.2104 20.4398 23.3333 20.1431 23.3333 19.8337V17.5003ZM7 7.00033L5.17883 12.465C5.12045 12.6403 5.10453 12.8269 5.13239 13.0096C5.16026 13.1922 5.2311 13.3657 5.33909 13.5156C5.44709 13.6655 5.58914 13.7876 5.75356 13.8719C5.91798 13.9562 6.10007 14.0002 6.28483 14.0003H21.7152C21.8999 14.0002 22.082 13.9562 22.2464 13.8719C22.4109 13.7876 22.5529 13.6655 22.6609 13.5156C22.7689 13.3657 22.8397 13.1922 22.8676 13.0096C22.8955 12.8269 22.8796 12.6403 22.8212 12.465L21 7.00033H7Z" fill="white"/>
</g>
<defs>
<clipPath id="clip0_203_1665">
<rect width="28" height="28" fill="white"/>
</clipPath>
</defs>
</svg>
