<svg width="22" height="22" viewBox="0 0 22 22" fill="none" xmlns="http://www.w3.org/2000/svg">
<path fill-rule="evenodd" clip-rule="evenodd" d="M9.59214 11.0009C9.59214 12.0997 8.70173 12.9901 7.60295 12.9901C6.50418 12.9901 5.61377 12.0997 5.61377 11.0009C5.61377 9.90213 6.50418 9.01172 7.60295 9.01172H7.60618C8.70388 9.01279 9.59214 9.9032 9.59214 11.0009Z" stroke="white" stroke-width="1.5" stroke-linecap="round" stroke-linejoin="round"/>
<path d="M9.59521 11.001H16.3812V12.9902" stroke="white" stroke-width="1.5" stroke-linecap="round" stroke-linejoin="round"/>
<path d="M13.3437 12.9902V11.001" stroke="white" stroke-width="1.5" stroke-linecap="round" stroke-linejoin="round"/>
<path fill-rule="evenodd" clip-rule="evenodd" d="M1.06494 11.0006C1.06494 3.54976 3.54927 1.06543 11.0001 1.06543C18.451 1.06543 20.9353 3.54976 20.9353 11.0006C20.9353 18.4515 18.451 20.9358 11.0001 20.9358C3.54927 20.9358 1.06494 18.4515 1.06494 11.0006Z" stroke="white" stroke-width="1.5" stroke-linecap="round" stroke-linejoin="round"/>
</svg>
